<mxfile host="www.draw.io" modified="2020-02-11T06:21:17.234Z" agent="Mozilla/5.0 (Windows NT 10.0; Win64; x64) AppleWebKit/537.36 (KHTML, like Gecko) Chrome/80.0.3987.87 Safari/537.36" etag="lyyZvgjnkzUCVfSdAAaV" version="12.6.6" type="github">
  <diagram name="Page-1" id="13e1069c-82ec-6db2-03f1-153e76fe0fe0">
    <mxGraphModel dx="782" dy="738" grid="1" gridSize="10" guides="1" tooltips="1" connect="1" arrows="1" fold="1" page="1" pageScale="1" pageWidth="1100" pageHeight="850" background="#ffffff" math="0" shadow="0">
      <root>
        <mxCell id="0"/>
        <mxCell id="1" parent="0"/>
        <object label="" id="oj8sBjgdbSHS_qJRGlnj-3">
          <mxCell style="edgeStyle=orthogonalEdgeStyle;rounded=0;orthogonalLoop=1;jettySize=auto;html=1;" edge="1" parent="1" source="7baba1c4bc27f4b0-8" target="oj8sBjgdbSHS_qJRGlnj-1">
            <mxGeometry relative="1" as="geometry">
              <Array as="points">
                <mxPoint x="355" y="210"/>
                <mxPoint x="355" y="210"/>
              </Array>
            </mxGeometry>
          </mxCell>
        </object>
        <mxCell id="oj8sBjgdbSHS_qJRGlnj-80" value="Assign to ODC" style="text;html=1;align=center;verticalAlign=middle;resizable=0;points=[];labelBackgroundColor=#ffffff;" vertex="1" connectable="0" parent="oj8sBjgdbSHS_qJRGlnj-3">
          <mxGeometry x="0.35" y="-1" relative="1" as="geometry">
            <mxPoint x="-26.5" y="-10" as="offset"/>
          </mxGeometry>
        </mxCell>
        <mxCell id="oj8sBjgdbSHS_qJRGlnj-106" value="" style="edgeStyle=none;orthogonalLoop=1;jettySize=auto;html=1;endArrow=blockThin;endFill=1;" edge="1" parent="1">
          <mxGeometry relative="1" as="geometry">
            <mxPoint x="264.5" y="477" as="sourcePoint"/>
            <mxPoint x="624.5" y="477" as="targetPoint"/>
            <Array as="points">
              <mxPoint x="380" y="477"/>
            </Array>
          </mxGeometry>
        </mxCell>
        <mxCell id="oj8sBjgdbSHS_qJRGlnj-108" value="Build share for verification" style="text;html=1;align=center;verticalAlign=middle;resizable=0;points=[];labelBackgroundColor=#ffffff;" vertex="1" connectable="0" parent="oj8sBjgdbSHS_qJRGlnj-106">
          <mxGeometry x="-0.2528" relative="1" as="geometry">
            <mxPoint x="139" y="-9" as="offset"/>
          </mxGeometry>
        </mxCell>
        <mxCell id="7baba1c4bc27f4b0-8" value="Lenze CCB" style="shape=umlLifeline;perimeter=lifelinePerimeter;whiteSpace=wrap;html=1;container=1;collapsible=0;recursiveResize=0;outlineConnect=0;rounded=1;shadow=0;comic=0;labelBackgroundColor=none;strokeWidth=1;fontFamily=Verdana;fontSize=12;align=center;" parent="1" vertex="1">
          <mxGeometry x="215" y="80" width="100" height="650" as="geometry"/>
        </mxCell>
        <mxCell id="7baba1c4bc27f4b0-9" value="" style="html=1;points=[];perimeter=orthogonalPerimeter;rounded=0;shadow=0;comic=0;labelBackgroundColor=none;strokeWidth=1;fontFamily=Verdana;fontSize=12;align=center;" parent="7baba1c4bc27f4b0-8" vertex="1">
          <mxGeometry x="45" y="100" width="10" height="490" as="geometry"/>
        </mxCell>
        <mxCell id="oj8sBjgdbSHS_qJRGlnj-1" value="ODC Dev" style="shape=umlLifeline;perimeter=lifelinePerimeter;whiteSpace=wrap;html=1;container=1;collapsible=0;recursiveResize=0;outlineConnect=0;rounded=1;shadow=0;comic=0;labelBackgroundColor=none;strokeWidth=1;fontFamily=Verdana;fontSize=12;align=center;" vertex="1" parent="1">
          <mxGeometry x="395" y="80" width="110" height="620" as="geometry"/>
        </mxCell>
        <mxCell id="oj8sBjgdbSHS_qJRGlnj-2" value="" style="html=1;points=[];perimeter=orthogonalPerimeter;rounded=0;shadow=0;comic=0;labelBackgroundColor=none;strokeWidth=1;fontFamily=Verdana;fontSize=12;align=center;" vertex="1" parent="oj8sBjgdbSHS_qJRGlnj-1">
          <mxGeometry x="50" y="100" width="10" height="110" as="geometry"/>
        </mxCell>
        <mxCell id="oj8sBjgdbSHS_qJRGlnj-40" value="" style="html=1;points=[];perimeter=orthogonalPerimeter;rounded=0;shadow=0;comic=0;labelBackgroundColor=none;strokeWidth=1;fontFamily=Verdana;fontSize=12;align=center;" vertex="1" parent="oj8sBjgdbSHS_qJRGlnj-1">
          <mxGeometry x="50" y="240" width="10" height="100" as="geometry"/>
        </mxCell>
        <mxCell id="oj8sBjgdbSHS_qJRGlnj-98" value="" style="html=1;points=[];perimeter=orthogonalPerimeter;rounded=0;shadow=0;comic=0;labelBackgroundColor=none;strokeWidth=1;fontFamily=Verdana;fontSize=12;align=center;" vertex="1" parent="oj8sBjgdbSHS_qJRGlnj-1">
          <mxGeometry x="50" y="360" width="10" height="130" as="geometry"/>
        </mxCell>
        <mxCell id="oj8sBjgdbSHS_qJRGlnj-10" value="ODC Test" style="shape=umlLifeline;perimeter=lifelinePerimeter;whiteSpace=wrap;html=1;container=1;collapsible=0;recursiveResize=0;outlineConnect=0;rounded=1;shadow=0;comic=0;labelBackgroundColor=none;strokeWidth=1;fontFamily=Verdana;fontSize=12;align=center;" vertex="1" parent="1">
          <mxGeometry x="575" y="80" width="100" height="660" as="geometry"/>
        </mxCell>
        <mxCell id="oj8sBjgdbSHS_qJRGlnj-11" value="" style="html=1;points=[];perimeter=orthogonalPerimeter;rounded=0;shadow=0;comic=0;labelBackgroundColor=none;strokeWidth=1;fontFamily=Verdana;fontSize=12;align=center;" vertex="1" parent="oj8sBjgdbSHS_qJRGlnj-10">
          <mxGeometry x="45" y="215" width="10" height="275" as="geometry"/>
        </mxCell>
        <mxCell id="oj8sBjgdbSHS_qJRGlnj-95" value="" style="html=1;points=[];perimeter=orthogonalPerimeter;rounded=0;shadow=0;comic=0;labelBackgroundColor=none;strokeWidth=1;fontFamily=Verdana;fontSize=12;align=center;" vertex="1" parent="oj8sBjgdbSHS_qJRGlnj-10">
          <mxGeometry x="45" y="530" width="10" height="90" as="geometry"/>
        </mxCell>
        <mxCell id="oj8sBjgdbSHS_qJRGlnj-56" style="edgeStyle=none;orthogonalLoop=1;jettySize=auto;html=1;endArrow=blockThin;endFill=1;" edge="1" parent="1">
          <mxGeometry relative="1" as="geometry">
            <mxPoint x="270" y="342" as="sourcePoint"/>
            <mxPoint x="444.5" y="342" as="targetPoint"/>
            <Array as="points">
              <mxPoint x="415" y="342"/>
            </Array>
          </mxGeometry>
        </mxCell>
        <mxCell id="oj8sBjgdbSHS_qJRGlnj-58" value="Response for the query" style="text;html=1;align=center;verticalAlign=middle;resizable=0;points=[];labelBackgroundColor=#ffffff;" vertex="1" connectable="0" parent="oj8sBjgdbSHS_qJRGlnj-56">
          <mxGeometry x="-0.1289" relative="1" as="geometry">
            <mxPoint y="-10" as="offset"/>
          </mxGeometry>
        </mxCell>
        <mxCell id="oj8sBjgdbSHS_qJRGlnj-60" value="" style="edgeStyle=none;orthogonalLoop=1;jettySize=auto;html=1;endArrow=blockThin;endFill=1;" edge="1" parent="1">
          <mxGeometry relative="1" as="geometry">
            <mxPoint x="450" y="363" as="sourcePoint"/>
            <mxPoint x="624.5" y="363" as="targetPoint"/>
            <Array as="points">
              <mxPoint x="605" y="363"/>
            </Array>
          </mxGeometry>
        </mxCell>
        <mxCell id="oj8sBjgdbSHS_qJRGlnj-61" value="Assign for function test" style="text;html=1;align=center;verticalAlign=middle;resizable=0;points=[];labelBackgroundColor=#ffffff;" vertex="1" connectable="0" parent="oj8sBjgdbSHS_qJRGlnj-60">
          <mxGeometry x="-0.1289" y="-2" relative="1" as="geometry">
            <mxPoint y="-12" as="offset"/>
          </mxGeometry>
        </mxCell>
        <mxCell id="oj8sBjgdbSHS_qJRGlnj-72" value="Lenze Test" style="shape=umlLifeline;perimeter=lifelinePerimeter;whiteSpace=wrap;html=1;container=1;collapsible=0;recursiveResize=0;outlineConnect=0;rounded=1;shadow=0;comic=0;labelBackgroundColor=none;strokeWidth=1;fontFamily=Verdana;fontSize=12;align=center;" vertex="1" parent="1">
          <mxGeometry x="30" y="80" width="100" height="580" as="geometry"/>
        </mxCell>
        <mxCell id="oj8sBjgdbSHS_qJRGlnj-73" value="" style="html=1;points=[];perimeter=orthogonalPerimeter;rounded=0;shadow=0;comic=0;labelBackgroundColor=none;strokeWidth=1;fontFamily=Verdana;fontSize=12;align=center;" vertex="1" parent="oj8sBjgdbSHS_qJRGlnj-72">
          <mxGeometry x="45" y="90" width="10" height="80" as="geometry"/>
        </mxCell>
        <mxCell id="oj8sBjgdbSHS_qJRGlnj-74" value="" style="edgeStyle=none;orthogonalLoop=1;jettySize=auto;html=1;endArrow=blockThin;endFill=1;" edge="1" parent="1" source="oj8sBjgdbSHS_qJRGlnj-73" target="7baba1c4bc27f4b0-8">
          <mxGeometry relative="1" as="geometry">
            <Array as="points">
              <mxPoint x="130" y="200"/>
              <mxPoint x="170" y="200"/>
            </Array>
          </mxGeometry>
        </mxCell>
        <mxCell id="oj8sBjgdbSHS_qJRGlnj-75" value="Craete a CR for issue/feature" style="text;html=1;align=center;verticalAlign=middle;resizable=0;points=[];labelBackgroundColor=#ffffff;" vertex="1" connectable="0" parent="oj8sBjgdbSHS_qJRGlnj-74">
          <mxGeometry x="0.1031" y="-1" relative="1" as="geometry">
            <mxPoint x="-14" y="-16" as="offset"/>
          </mxGeometry>
        </mxCell>
        <mxCell id="oj8sBjgdbSHS_qJRGlnj-82" value="" style="edgeStyle=none;orthogonalLoop=1;jettySize=auto;html=1;endArrow=blockThin;endFill=1;entryX=1.2;entryY=0.17;entryDx=0;entryDy=0;entryPerimeter=0;dashed=1;" edge="1" parent="1" source="oj8sBjgdbSHS_qJRGlnj-2" target="7baba1c4bc27f4b0-9">
          <mxGeometry relative="1" as="geometry">
            <mxPoint x="350" y="255" as="targetPoint"/>
            <Array as="points">
              <mxPoint x="440" y="263"/>
            </Array>
          </mxGeometry>
        </mxCell>
        <mxCell id="oj8sBjgdbSHS_qJRGlnj-83" value="Query/Clarification" style="text;html=1;align=center;verticalAlign=middle;resizable=0;points=[];labelBackgroundColor=#ffffff;" vertex="1" connectable="0" parent="oj8sBjgdbSHS_qJRGlnj-82">
          <mxGeometry x="-0.1548" y="-1" relative="1" as="geometry">
            <mxPoint x="-9" y="-10.080000000000002" as="offset"/>
          </mxGeometry>
        </mxCell>
        <mxCell id="oj8sBjgdbSHS_qJRGlnj-87" value="" style="edgeStyle=none;orthogonalLoop=1;jettySize=auto;html=1;endArrow=blockThin;endFill=1;" edge="1" parent="1">
          <mxGeometry relative="1" as="geometry">
            <mxPoint x="620" y="646" as="sourcePoint"/>
            <mxPoint x="270" y="646" as="targetPoint"/>
            <Array as="points">
              <mxPoint x="545.5" y="646"/>
              <mxPoint x="425.5" y="646"/>
            </Array>
          </mxGeometry>
        </mxCell>
        <mxCell id="oj8sBjgdbSHS_qJRGlnj-88" value="CR create for New/Existing issue/feature" style="text;html=1;align=center;verticalAlign=middle;resizable=0;points=[];labelBackgroundColor=#ffffff;" vertex="1" connectable="0" parent="oj8sBjgdbSHS_qJRGlnj-87">
          <mxGeometry x="0.0633" y="2" relative="1" as="geometry">
            <mxPoint x="23.5" y="-13" as="offset"/>
          </mxGeometry>
        </mxCell>
        <mxCell id="oj8sBjgdbSHS_qJRGlnj-101" value="" style="edgeStyle=none;orthogonalLoop=1;jettySize=auto;html=1;endArrow=blockThin;endFill=1;dashed=1;" edge="1" parent="1" source="oj8sBjgdbSHS_qJRGlnj-11" target="oj8sBjgdbSHS_qJRGlnj-1">
          <mxGeometry relative="1" as="geometry">
            <mxPoint x="530" y="395" as="targetPoint"/>
            <Array as="points">
              <mxPoint x="540" y="410"/>
            </Array>
          </mxGeometry>
        </mxCell>
        <mxCell id="oj8sBjgdbSHS_qJRGlnj-102" value="Test OK on ODC build" style="text;html=1;align=center;verticalAlign=middle;resizable=0;points=[];labelBackgroundColor=#ffffff;" vertex="1" connectable="0" parent="oj8sBjgdbSHS_qJRGlnj-101">
          <mxGeometry x="0.2194" y="-2" relative="1" as="geometry">
            <mxPoint x="25" y="-7" as="offset"/>
          </mxGeometry>
        </mxCell>
        <mxCell id="oj8sBjgdbSHS_qJRGlnj-104" value="" style="edgeStyle=none;orthogonalLoop=1;jettySize=auto;html=1;endArrow=blockThin;endFill=1;exitX=0.1;exitY=0.131;exitDx=0;exitDy=0;exitPerimeter=0;" edge="1" parent="1" source="oj8sBjgdbSHS_qJRGlnj-98">
          <mxGeometry relative="1" as="geometry">
            <mxPoint x="440" y="455" as="sourcePoint"/>
            <mxPoint x="264.5" y="455" as="targetPoint"/>
          </mxGeometry>
        </mxCell>
        <mxCell id="oj8sBjgdbSHS_qJRGlnj-105" value="Code merge in to trunk" style="text;html=1;align=center;verticalAlign=middle;resizable=0;points=[];labelBackgroundColor=#ffffff;" vertex="1" connectable="0" parent="oj8sBjgdbSHS_qJRGlnj-104">
          <mxGeometry x="-0.2479" y="1" relative="1" as="geometry">
            <mxPoint x="-14" y="-11" as="offset"/>
          </mxGeometry>
        </mxCell>
        <mxCell id="oj8sBjgdbSHS_qJRGlnj-131" value="" style="edgeStyle=segmentEdgeStyle;endArrow=classic;html=1;" edge="1" parent="1">
          <mxGeometry width="50" height="50" relative="1" as="geometry">
            <mxPoint x="456" y="220" as="sourcePoint"/>
            <mxPoint x="455.5" y="250" as="targetPoint"/>
            <Array as="points">
              <mxPoint x="516" y="220"/>
              <mxPoint x="516" y="250"/>
            </Array>
          </mxGeometry>
        </mxCell>
        <mxCell id="oj8sBjgdbSHS_qJRGlnj-132" value="Create OIT &lt;br&gt;in Palarian" style="text;html=1;align=center;verticalAlign=middle;resizable=0;points=[];labelBackgroundColor=#ffffff;" vertex="1" connectable="0" parent="oj8sBjgdbSHS_qJRGlnj-131">
          <mxGeometry x="0.3138" y="2" relative="1" as="geometry">
            <mxPoint x="-18" y="-52" as="offset"/>
          </mxGeometry>
        </mxCell>
        <mxCell id="oj8sBjgdbSHS_qJRGlnj-133" value="" style="edgeStyle=segmentEdgeStyle;endArrow=classic;html=1;" edge="1" parent="1">
          <mxGeometry width="50" height="50" relative="1" as="geometry">
            <mxPoint x="453.5" y="527" as="sourcePoint"/>
            <mxPoint x="453" y="557" as="targetPoint"/>
            <Array as="points">
              <mxPoint x="513.5" y="527"/>
              <mxPoint x="513.5" y="557"/>
            </Array>
          </mxGeometry>
        </mxCell>
        <mxCell id="oj8sBjgdbSHS_qJRGlnj-134" value="CR verified on Lenze build&lt;br&gt;&lt;div style=&quot;text-align: left&quot;&gt;1. Update Polarian&lt;/div&gt;&lt;div style=&quot;text-align: left&quot;&gt;2. Update RCQ&lt;/div&gt;" style="text;html=1;align=center;verticalAlign=middle;resizable=0;points=[];labelBackgroundColor=#ffffff;" vertex="1" connectable="0" parent="oj8sBjgdbSHS_qJRGlnj-133">
          <mxGeometry x="0.3138" y="2" relative="1" as="geometry">
            <mxPoint x="23.5" y="-57" as="offset"/>
          </mxGeometry>
        </mxCell>
      </root>
    </mxGraphModel>
  </diagram>
</mxfile>
